<svg width="24" height="23" viewBox="0 0 24 23" fill="none" xmlns="http://www.w3.org/2000/svg">
<path fill-rule="evenodd" clip-rule="evenodd" d="M6.60822 11.8249C6.60943 11.6425 6.68632 11.4682 6.82196 11.3401C6.95761 11.2121 7.1409 11.1409 7.33152 11.1421L15.6588 11.1975L12.5921 8.22628C12.458 8.09629 12.3834 7.9207 12.3846 7.73814C12.3858 7.55558 12.4628 7.381 12.5986 7.2528C12.7344 7.12461 12.9179 7.0533 13.1088 7.05457C13.2997 7.05584 13.4822 7.12957 13.6163 7.25956L17.9013 11.4131C17.9678 11.4774 18.0204 11.5536 18.0561 11.6374C18.0918 11.7212 18.1099 11.8108 18.1093 11.9013C18.1087 11.9917 18.0894 12.0811 18.0526 12.1644C18.0158 12.2477 17.9622 12.3232 17.8949 12.3866L13.5551 16.4829C13.4192 16.6111 13.2357 16.6824 13.0449 16.6811C12.854 16.6798 12.6714 16.6061 12.5373 16.4761C12.4032 16.3461 12.3286 16.1705 12.3298 15.988C12.331 15.8054 12.408 15.6308 12.5438 15.5026L15.6496 12.5724L7.32239 12.5171C7.13177 12.5159 6.94944 12.4422 6.81551 12.3124C6.68157 12.1826 6.60701 12.0072 6.60822 11.8249Z" fill="#8D4337"/>
</svg>
