<svg width="17" height="17" viewBox="0 0 17 17" fill="none" xmlns="http://www.w3.org/2000/svg">
<g clip-path="url(#clip0_12_371)">
<path d="M8.00647 15.0528C6.15 15.0405 4.37446 14.2912 3.07045 12.9697C1.76645 11.6483 1.04079 9.86294 1.05313 8.00647C1.06546 6.14999 1.81477 4.37445 3.13622 3.07045C4.45766 1.76644 6.243 1.04079 8.09947 1.05312C9.95595 1.06545 11.7315 1.81476 13.0355 3.13621C14.3395 4.45765 15.0652 6.24299 15.0528 8.09947C15.0405 9.95594 14.2912 11.7315 12.9697 13.0355C11.6483 14.3395 9.86295 15.0651 8.00647 15.0528ZM7.99983 16.0528C10.1215 16.0669 12.1619 15.2376 13.6721 13.7473C15.1823 12.257 16.0387 10.2278 16.0528 8.10611C16.0669 5.98442 15.2376 3.94404 13.7473 2.43382C12.257 0.923591 10.2278 0.0672375 8.10612 0.0531431C5.98443 0.0390487 3.94405 0.868368 2.43382 2.35866C0.923597 3.84895 0.0672441 5.87814 0.0531497 7.99982C0.0390552 10.1215 0.868374 12.1619 2.35867 13.6721C3.84896 15.1823 5.87815 16.0387 7.99983 16.0528Z" fill="#8D4337"/>
<path d="M7.03507 11.0462C7.03594 10.9149 7.06267 10.785 7.11373 10.6641C7.16479 10.5431 7.23918 10.4333 7.33265 10.3411C7.42613 10.2488 7.53685 10.1759 7.65851 10.1265C7.78017 10.077 7.91037 10.052 8.04169 10.0529C8.17301 10.0538 8.30287 10.0805 8.42386 10.1316C8.54485 10.1826 8.6546 10.257 8.74684 10.3505C8.83908 10.444 8.912 10.5547 8.96145 10.6763C9.0109 10.798 9.0359 10.9282 9.03503 11.0595C9.03326 11.3247 8.92622 11.5784 8.73744 11.7647C8.54866 11.9509 8.29362 12.0546 8.02841 12.0528C7.7632 12.0511 7.50955 11.944 7.32326 11.7553C7.13697 11.5665 7.03331 11.3114 7.03507 11.0462ZM7.17296 5.04201C7.16048 4.91577 7.17468 4.78831 7.21465 4.66791C7.25461 4.54751 7.31944 4.43685 7.40493 4.34312C7.49041 4.2494 7.59465 4.17469 7.71088 4.12385C7.82711 4.07301 7.95273 4.04717 8.07958 4.04801C8.20644 4.04885 8.3317 4.07636 8.44724 4.12874C8.56278 4.18112 8.66602 4.2572 8.75026 4.35206C8.83449 4.44692 8.89785 4.55842 8.93621 4.67934C8.97457 4.80027 8.98707 4.9279 8.97292 5.05397L8.59963 8.55857C8.58696 8.69626 8.52307 8.82418 8.4206 8.91702C8.31814 9.00987 8.18456 9.06087 8.04629 9.05995C7.90802 9.05904 7.77513 9.00626 7.67391 8.91206C7.57268 8.81786 7.5105 8.68911 7.49965 8.55126L7.17296 5.04201Z" fill="#8D4337"/>
</g>
<defs>
<clipPath id="clip0_12_371">
<rect width="16" height="16" fill="white" transform="translate(0.106293) rotate(0.380612)"/>
</clipPath>
</defs>
</svg>
