<svg width="17" height="17" viewBox="0 0 17 17" fill="none" xmlns="http://www.w3.org/2000/svg">
<g clip-path="url(#clip0_3015_1110)">
<path d="M8.52018 15.8619C6.6637 15.8496 4.88816 15.1003 3.58416 13.7788C2.28015 12.4574 1.5545 10.672 1.56683 8.81555C1.57916 6.95907 2.32847 5.18353 3.64992 3.87953C4.97136 2.57552 6.7567 1.84987 8.61318 1.8622C10.4697 1.87454 12.2452 2.62384 13.5492 3.94529C14.8532 5.26674 15.5789 7.05207 15.5665 8.90855C15.5542 10.765 14.8049 12.5406 13.4834 13.8446C12.162 15.1486 10.3767 15.8742 8.52018 15.8619ZM8.51353 16.8619C10.6352 16.876 12.6756 16.0466 14.1858 14.5564C15.6961 13.0661 16.5524 11.0369 16.5665 8.91519C16.5806 6.79351 15.7513 4.75312 14.261 3.2429C12.7707 1.73267 10.7415 0.87632 8.61982 0.862225C6.49813 0.848131 4.45775 1.67745 2.94752 3.16774C1.4373 4.65803 0.580946 6.68722 0.566852 8.80891C0.552758 10.9306 1.38208 12.971 2.87237 14.4812C4.36266 15.9914 6.39185 16.8478 8.51353 16.8619Z" fill="#8D4337"/>
<path d="M7.54877 11.8553C7.54965 11.724 7.57637 11.5941 7.62743 11.4731C7.67849 11.3522 7.75288 11.2424 7.84636 11.1502C7.93983 11.0579 8.05056 10.985 8.17221 10.9356C8.29387 10.8861 8.42407 10.8611 8.55539 10.862C8.68671 10.8628 8.81657 10.8896 8.93756 10.9406C9.05855 10.9917 9.1683 11.0661 9.26054 11.1596C9.35278 11.253 9.4257 11.3638 9.47515 11.4854C9.5246 11.6071 9.5496 11.7373 9.54873 11.8686C9.54697 12.1338 9.43992 12.3875 9.25114 12.5737C9.06237 12.76 8.80732 12.8637 8.54211 12.8619C8.2769 12.8602 8.02325 12.7531 7.83696 12.5643C7.65068 12.3756 7.54701 12.1205 7.54877 11.8553ZM7.68666 5.85109C7.67418 5.72485 7.68839 5.59739 7.72835 5.47699C7.76831 5.35659 7.83314 5.24593 7.91863 5.15221C8.00412 5.05848 8.10836 4.98377 8.22458 4.93293C8.34081 4.88209 8.46643 4.85625 8.59328 4.85709C8.72014 4.85794 8.8454 4.88544 8.96095 4.93782C9.07649 4.9902 9.17972 5.06629 9.26396 5.16114C9.3482 5.256 9.41155 5.3675 9.44991 5.48843C9.48827 5.60935 9.50078 5.73698 9.48662 5.86305L9.11333 9.36765C9.10066 9.50534 9.03677 9.63326 8.9343 9.7261C8.83184 9.81895 8.69826 9.86995 8.55999 9.86904C8.42172 9.86812 8.28883 9.81534 8.18761 9.72114C8.08639 9.62694 8.0242 9.49819 8.01336 9.36034L7.68666 5.85109Z" fill="#8D4337"/>
</g>
<defs>
<clipPath id="clip0_3015_1110">
<rect width="16" height="16" fill="white" transform="translate(0.619995 0.809082) rotate(0.380612)"/>
</clipPath>
</defs>
</svg>
