<svg width="96" height="292" viewBox="0 0 96 292" fill="none" xmlns="http://www.w3.org/2000/svg">
<g clip-path="url(#clip0_12_466)">
<path d="M3.612 14.4778C3.226 14.6634 2.788 14.3381 2.866 13.9228L3.696 9.48842L0.172996 6.34217C-0.156004 6.04779 0.0149962 5.50967 0.455996 5.45154L5.354 4.79904L7.538 0.74248C7.735 0.376855 8.268 0.376855 8.465 0.74248L10.649 4.79904L15.547 5.45154C15.988 5.50967 16.159 6.04779 15.829 6.34217L12.307 9.48842L13.137 13.9228C13.215 14.3381 12.777 14.6634 12.391 14.4778L8 12.3628L3.612 14.4778Z" fill="black"/>
</g>
<g clip-path="url(#clip1_12_466)">
<path d="M23.612 14.4778C23.226 14.6634 22.788 14.3381 22.866 13.9228L23.696 9.48842L20.173 6.34217C19.844 6.04779 20.015 5.50967 20.456 5.45154L25.354 4.79904L27.538 0.74248C27.735 0.376855 28.268 0.376855 28.465 0.74248L30.649 4.79904L35.547 5.45154C35.988 5.50967 36.159 6.04779 35.829 6.34217L32.307 9.48842L33.137 13.9228C33.215 14.3381 32.777 14.6634 32.391 14.4778L28 12.3628L23.612 14.4778Z" fill="black"/>
</g>
<g clip-path="url(#clip2_12_466)">
<path d="M43.612 14.4778C43.226 14.6634 42.788 14.3381 42.866 13.9228L43.696 9.48842L40.173 6.34217C39.844 6.04779 40.015 5.50967 40.456 5.45154L45.354 4.79904L47.538 0.74248C47.735 0.376855 48.268 0.376855 48.465 0.74248L50.649 4.79904L55.547 5.45154C55.988 5.50967 56.159 6.04779 55.829 6.34217L52.307 9.48842L53.137 13.9228C53.215 14.3381 52.777 14.6634 52.391 14.4778L48 12.3628L43.612 14.4778Z" fill="black"/>
</g>
<g clip-path="url(#clip3_12_466)">
<path d="M82.866 14.85C82.788 15.294 83.226 15.641 83.612 15.443L88.002 13.187L92.391 15.443C92.777 15.641 93.215 15.294 93.137 14.851L92.307 10.121L95.829 6.76505C96.159 6.45105 95.989 5.87705 95.547 5.81505L90.649 5.11905L88.465 0.792045C88.4234 0.704334 88.3578 0.630228 88.2757 0.578338C88.1937 0.526447 88.0986 0.498901 88.0015 0.498901C87.9044 0.498901 87.8093 0.526447 87.7273 0.578338C87.6452 0.630228 87.5796 0.704334 87.538 0.792045L85.354 5.12005L80.456 5.81605C80.015 5.87805 79.844 6.45204 80.173 6.76605L83.696 10.122L82.866 14.852V14.85ZM87.771 12.083L84.085 13.977L84.779 10.02C84.7953 9.92896 84.7889 9.83527 84.7605 9.74722C84.7321 9.65916 84.6824 9.57944 84.616 9.51505L81.71 6.74505L85.762 6.16905C85.8459 6.15637 85.9255 6.12355 85.9939 6.0734C86.0624 6.02324 86.1176 5.95724 86.155 5.88105L88 2.22305L89.847 5.88105C89.8844 5.95724 89.9396 6.02324 90.0081 6.0734C90.0765 6.12355 90.1561 6.15637 90.24 6.16905L94.292 6.74405L91.386 9.51404C91.3194 9.57854 91.2697 9.65843 91.2413 9.74668C91.2128 9.83492 91.2066 9.9288 91.223 10.02L91.917 13.977L88.231 12.083C88.1597 12.0463 88.0807 12.0271 88.0005 12.0271C87.9203 12.0271 87.8423 12.0463 87.771 12.083Z" fill="black"/>
</g>
<path d="M59.6157 279.151L61.6723 273.829C61.7118 273.722 61.7736 273.632 61.8505 273.568C61.9274 273.505 62.0164 273.471 62.1074 273.47C62.2797 273.47 62.452 273.589 62.5453 273.829L64.6019 279.151L69.2141 280.007C69.3291 280.031 69.4343 280.106 69.512 280.219C69.5897 280.332 69.6352 280.477 69.6407 280.629C69.6473 280.73 69.6363 280.831 69.6086 280.926C69.5809 281.021 69.5371 281.106 69.4806 281.176L66.1631 285.304L66.9447 291.122C67.0182 291.667 66.6057 292.093 66.2422 291.85L62.1074 289.075L57.9744 291.85C57.9312 291.879 57.8848 291.9 57.8369 291.911C57.5149 291.985 57.2079 291.599 57.2719 291.122L58.0535 285.304L54.737 281.176C54.6854 281.112 54.6444 281.035 54.6166 280.95C54.5887 280.865 54.5745 280.773 54.575 280.68C54.575 280.549 54.6027 280.421 54.655 280.309C54.6921 280.228 54.7427 280.158 54.803 280.106C54.8633 280.054 54.9318 280.02 55.0035 280.007L59.6157 279.151ZM62.1074 287.648C62.1834 287.648 62.2584 287.671 62.3259 287.717L65.7968 290.047L65.1433 285.18C65.1279 285.068 65.1337 284.952 65.1603 284.844C65.1869 284.736 65.2335 284.638 65.2959 284.558L68.0333 281.151L64.2177 280.443C64.1386 280.427 64.0637 280.387 63.9993 280.325C63.9348 280.263 63.8828 280.182 63.8476 280.089L62.1083 275.589L62.1074 275.593V287.647V287.648Z" fill="black"/>
<defs>
<clipPath id="clip0_12_466">
<rect width="16" height="15" fill="white"/>
</clipPath>
<clipPath id="clip1_12_466">
<rect width="16" height="15" fill="white" transform="translate(20)"/>
</clipPath>
<clipPath id="clip2_12_466">
<rect width="16" height="15" fill="white" transform="translate(40)"/>
</clipPath>
<clipPath id="clip3_12_466">
<rect width="16" height="16" fill="white" transform="translate(80)"/>
</clipPath>
</defs>
</svg>
