<svg width="97" height="18" viewBox="0 0 97 18" fill="none" xmlns="http://www.w3.org/2000/svg">
<g clip-path="url(#clip0_3015_1084)">
<path d="M6.62574 15.596C6.23852 15.779 5.80269 15.4508 5.88344 15.036L6.74288 10.6072L3.24086 7.43766C2.91382 7.14111 3.08839 6.60413 3.52977 6.54894L8.432 5.92899L10.6429 1.88702C10.8423 1.52271 11.3753 1.52625 11.5699 1.89318L13.7269 5.96416L18.6204 6.64918C19.061 6.71024 19.2285 7.24949 18.8965 7.54166L15.3537 10.6644L16.1542 15.1042C16.2295 15.5201 15.7893 15.8425 15.4045 15.6543L11.0277 13.5101L6.62574 15.596Z" fill="black"/>
</g>
<g clip-path="url(#clip1_3015_1084)">
<path d="M25.6257 15.8616C25.2385 16.0446 24.8027 15.7164 24.8834 15.3016L25.7429 10.8729L22.2409 7.70329C21.9138 7.40673 22.0884 6.86976 22.5298 6.81456L27.432 6.19461L29.6429 2.15265C29.8423 1.78834 30.3753 1.79188 30.5699 2.1588L32.7269 6.22979L37.6204 6.91481C38.061 6.97586 38.2285 7.51511 37.8965 7.80729L34.3537 10.9301L35.1542 15.3699C35.2295 15.7857 34.7893 16.1081 34.4045 15.9199L30.0277 13.7758L25.6257 15.8616Z" fill="black"/>
</g>
<g clip-path="url(#clip2_3015_1084)">
<path d="M60.4556 14.9809C60.3746 15.4249 60.8294 15.7718 61.2302 15.5739L65.7882 13.318L70.3451 15.5739C70.7459 15.7718 71.2007 15.4249 71.1197 14.9819L70.2579 10.2523L73.9147 6.89653C74.2573 6.58255 74.0808 6.00859 73.6219 5.9466L68.5365 5.25065L66.2689 0.923981C66.2257 0.836276 66.1575 0.762176 66.0723 0.710289C65.9872 0.658403 65.8884 0.630859 65.7876 0.630859C65.6868 0.630859 65.5881 0.658403 65.5029 0.710289C65.4178 0.762176 65.3496 0.836276 65.3064 0.923981L63.0388 5.25165L57.9534 5.9476C57.4955 6.00959 57.318 6.58355 57.6596 6.89753L61.3174 10.2533L60.4556 14.9829V14.9809ZM65.5483 12.2141L61.7213 14.108L62.4418 10.1513C62.4587 10.0602 62.4521 9.96652 62.4226 9.87847C62.3931 9.79042 62.3416 9.7107 62.2726 9.64632L59.2554 6.87653L63.4624 6.30057C63.5496 6.2879 63.6322 6.25508 63.7032 6.20493C63.7743 6.15478 63.8317 6.08878 63.8705 6.01259L65.7861 2.35487L67.7038 6.01259C67.7425 6.08878 67.7999 6.15478 67.871 6.20493C67.9421 6.25508 68.0247 6.2879 68.1118 6.30057L72.3189 6.87553L69.3017 9.64532C69.2325 9.70981 69.1809 9.78969 69.1514 9.87793C69.1219 9.96617 69.1154 10.06 69.1324 10.1513L69.853 14.108L66.0259 12.2141C65.9519 12.1774 65.8699 12.1582 65.7866 12.1582C65.7033 12.1582 65.6223 12.1774 65.5483 12.2141Z" fill="black"/>
</g>
<path d="M45.4713 5.18957L47.6187 0.84275C47.6599 0.755324 47.7248 0.681205 47.8061 0.628833C47.8873 0.576461 47.9816 0.54794 48.0782 0.546518C48.2612 0.544834 48.445 0.640144 48.5456 0.834221L50.7657 5.14085L55.6691 5.79174C55.7913 5.80981 55.9035 5.86949 55.9868 5.96072C56.0701 6.05196 56.1194 6.16915 56.1263 6.29254C56.1339 6.37465 56.123 6.45746 56.0942 6.53477C56.0654 6.61209 56.0195 6.68193 55.96 6.73907L52.4656 10.1273L53.3352 14.8493C53.4169 15.2916 52.9819 15.6426 52.5943 15.4482L48.1848 13.2327L43.8152 15.5289C43.7695 15.5532 43.7204 15.5705 43.6696 15.5803C43.3282 15.6434 42.9996 15.3324 43.0643 14.9438L43.8545 10.2065L40.3046 6.88313C40.2494 6.83184 40.2054 6.76974 40.1752 6.70069C40.1451 6.63164 40.1294 6.55711 40.1293 6.48174C40.1284 6.37518 40.1569 6.27043 40.2117 6.17898C40.2506 6.11269 40.3038 6.05596 40.3675 6.01297C40.4311 5.96997 40.5036 5.94182 40.5796 5.93059L45.4713 5.18957ZM48.175 12.0728C48.2557 12.0717 48.3355 12.0902 48.4075 12.1266L52.109 13.9866L51.3818 10.0362C51.3647 9.9454 51.3701 9.85171 51.3976 9.76341C51.4251 9.6751 51.4739 9.59488 51.5396 9.52979L54.423 6.73322L50.3666 6.19454C50.2826 6.18264 50.2027 6.15055 50.1339 6.10103C50.065 6.0515 50.0092 5.98601 49.9712 5.91017L48.0937 2.2694L48.0927 2.27241L48.175 12.0718L48.175 12.0728Z" fill="black"/>
<defs>
<clipPath id="clip0_3015_1084">
<rect width="16" height="15" fill="white" transform="translate(3.11 1.09448) rotate(0.380612)"/>
</clipPath>
<clipPath id="clip1_3015_1084">
<rect width="16" height="15" fill="white" transform="translate(22.11 1.36011) rotate(0.380612)"/>
</clipPath>
<clipPath id="clip2_3015_1084">
<rect width="16" height="15" fill="white" transform="translate(57.48 0.163086)"/>
</clipPath>
</defs>
</svg>
