<svg width="97" height="18" viewBox="0 0 97 18" fill="none" xmlns="http://www.w3.org/2000/svg">
<g clip-path="url(#clip0_3015_1085)">
<path d="M7.51882 15.596C7.1316 15.779 6.69577 15.4508 6.77653 15.036L7.63596 10.6072L4.13394 7.43766C3.8069 7.14111 3.98148 6.60413 4.42285 6.54894L9.32508 5.92899L11.536 1.88702C11.7354 1.52271 12.2684 1.52625 12.463 1.89318L14.62 5.96416L19.5135 6.64918C19.9541 6.71024 20.1215 7.24949 19.7896 7.54166L16.2468 10.6644L17.0473 15.1042C17.1225 15.5201 16.6824 15.8425 16.2976 15.6543L11.9208 13.5101L7.51882 15.596Z" fill="black"/>
</g>
<g clip-path="url(#clip1_3015_1085)">
<path d="M26.5188 15.8616C26.1316 16.0446 25.6958 15.7164 25.7765 15.3016L26.636 10.8729L23.1339 7.70329C22.8069 7.40673 22.9815 6.86976 23.4229 6.81456L28.3251 6.19461L30.536 2.15265C30.7354 1.78834 31.2684 1.79188 31.463 2.1588L33.62 6.22979L38.5135 6.91481C38.9541 6.97586 39.1215 7.51511 38.7896 7.80729L35.2468 10.9301L36.0473 15.3699C36.1225 15.7857 35.6824 16.1081 35.2976 15.9199L30.9208 13.7758L26.5188 15.8616Z" fill="black"/>
</g>
<g clip-path="url(#clip2_3015_1085)">
<path d="M61.3487 14.9808C61.2677 15.4248 61.7225 15.7717 62.1232 15.5737L66.6812 13.3179L71.2382 15.5737C71.639 15.7717 72.0937 15.4248 72.0127 14.9818L71.151 10.2521L74.8078 6.8964C75.1504 6.58243 74.9739 6.00847 74.515 5.94648L69.4295 5.25053L67.162 0.923859C67.1188 0.836154 67.0506 0.762054 66.9654 0.710167C66.8802 0.658281 66.7815 0.630737 66.6807 0.630737C66.5799 0.630737 66.4812 0.658281 66.396 0.710167C66.3108 0.762054 66.2427 0.836154 66.1995 0.923859L63.9319 5.25153L58.8465 5.94748C58.3886 6.00947 58.2111 6.58343 58.5526 6.8974L62.2105 10.2531L61.3487 14.9828V14.9808ZM66.4414 12.214L62.6143 14.1079L63.3349 10.1512C63.3518 10.0601 63.3452 9.9664 63.3157 9.87835C63.2862 9.7903 63.2347 9.71058 63.1657 9.64619L60.1485 6.87641L64.3555 6.30045C64.4426 6.28778 64.5253 6.25496 64.5963 6.20481C64.6674 6.15465 64.7248 6.08866 64.7636 6.01247L66.6792 2.35475L68.5968 6.01247C68.6356 6.08866 68.693 6.15465 68.7641 6.20481C68.8351 6.25496 68.9178 6.28778 69.0049 6.30045L73.2119 6.87541L70.1947 9.64519C70.1256 9.70968 70.074 9.78957 70.0445 9.87781C70.015 9.96604 70.0084 10.0599 70.0255 10.1512L70.7461 14.1079L66.919 12.214C66.845 12.1773 66.7629 12.1581 66.6797 12.1581C66.5964 12.1581 66.5154 12.1773 66.4414 12.214Z" fill="black"/>
</g>
<path d="M46.3643 5.18945L48.5118 0.842628C48.553 0.755201 48.6179 0.681083 48.6991 0.628711C48.7804 0.576339 48.8747 0.547818 48.9713 0.546396C49.1542 0.544712 49.338 0.640022 49.4387 0.834099L51.6588 5.14073L56.5621 5.79161C56.6844 5.80968 56.7966 5.86937 56.8799 5.9606C56.9632 6.05183 57.0124 6.16903 57.0193 6.29241C57.027 6.37453 57.016 6.45733 56.9873 6.53465C56.9585 6.61197 56.9126 6.6818 56.8531 6.73895L53.3587 10.1272L54.2283 14.8492C54.31 15.2915 53.875 15.6425 53.4874 15.448L49.0779 13.2326L44.7083 15.5288C44.6626 15.5531 44.6135 15.5704 44.5627 15.5802C44.2212 15.6433 43.8926 15.3323 43.9574 14.9437L44.7475 10.2064L41.1977 6.88301C41.1425 6.83172 41.0985 6.76962 41.0683 6.70057C41.0382 6.63152 41.0225 6.55699 41.0223 6.48162C41.0215 6.37506 41.05 6.27031 41.1048 6.17886C41.1436 6.11257 41.1969 6.05583 41.2605 6.01284C41.3242 5.96985 41.3967 5.9417 41.4727 5.93047L46.3643 5.18945ZM49.0681 12.0727C49.1488 12.0716 49.2286 12.0901 49.3006 12.1265L53.0021 13.9865L52.2749 10.0361C52.2578 9.94527 52.2632 9.85159 52.2907 9.76328C52.3182 9.67498 52.3669 9.59476 52.4327 9.52966L55.3161 6.73309L51.2597 6.19441C51.1757 6.18252 51.0958 6.15043 51.027 6.1009C50.9581 6.05138 50.9023 5.98589 50.8643 5.91005L48.9867 2.26928L48.9858 2.27229L49.0681 12.0717L49.0681 12.0727Z" fill="black"/>
<defs>
<clipPath id="clip0_3015_1085">
<rect width="16" height="15" fill="white" transform="translate(4.00308 1.09448) rotate(0.380612)"/>
</clipPath>
<clipPath id="clip1_3015_1085">
<rect width="16" height="15" fill="white" transform="translate(23.0031 1.36011) rotate(0.380612)"/>
</clipPath>
<clipPath id="clip2_3015_1085">
<rect width="16" height="15" fill="white" transform="translate(58.3731 0.163086)"/>
</clipPath>
</defs>
</svg>
