<svg width="98" height="17" viewBox="0 0 98 17" fill="none" xmlns="http://www.w3.org/2000/svg">
<g clip-path="url(#clip0_3015_1120)">
<path d="M4.23538 15.4675C3.84815 15.6506 3.41232 15.3224 3.49308 14.9076L4.35252 10.4788L0.850495 7.30924C0.523458 7.01269 0.698029 6.47571 1.13941 6.42052L6.04163 5.80057L8.25253 1.7586C8.45196 1.3943 8.98494 1.39784 9.17951 1.76476L11.3365 5.83574L16.2301 6.52077C16.6707 6.58182 16.8381 7.12107 16.5062 7.41324L12.9633 10.536L13.7639 14.9758C13.8391 15.3916 13.3989 15.714 13.0142 15.5259L8.63733 13.3817L4.23538 15.4675Z" fill="black"/>
</g>
<g clip-path="url(#clip1_3015_1120)">
<path d="M24.2349 15.6005C23.8477 15.7835 23.4119 15.4553 23.4926 15.0405L24.3521 10.6118L20.8501 7.44218C20.523 7.14562 20.6976 6.60865 21.139 6.55345L26.0412 5.9335L28.2521 1.89154C28.4515 1.52723 28.9845 1.53077 29.1791 1.8977L31.3361 5.96868L36.2296 6.6537C36.6702 6.71475 36.8377 7.254 36.5057 7.54618L32.9629 10.669L33.7634 15.1088C33.8386 15.5246 33.3985 15.847 33.0137 15.6588L28.6369 13.5147L24.2349 15.6005Z" fill="black"/>
</g>
<g clip-path="url(#clip2_3015_1120)">
<path d="M44.2345 15.7333C43.8473 15.9163 43.4115 15.5881 43.4922 15.1733L44.3516 10.7446L40.8496 7.57499C40.5226 7.27844 40.6972 6.74146 41.1385 6.68627L46.0408 6.06632L48.2517 2.02435C48.4511 1.66004 48.9841 1.66358 49.1786 2.03051L51.3356 6.10149L56.2292 6.78651C56.6698 6.84757 56.8372 7.38681 56.5053 7.67899L52.9625 10.8018L53.763 15.2416C53.8382 15.6574 53.3981 15.9798 53.0133 15.7916L48.6365 13.6475L44.2345 15.7333Z" fill="black"/>
</g>
<path d="M83.3826 5.80781L81.7423 10.943C81.7839 10.8537 85.6573 1.20073 85.7387 1.14773C85.8202 1.09473 85.9146 1.06634 86.0113 1.0658C86.1943 1.0658 86.3776 1.16538 86.4773 1.36557L88.6773 5.80781L93.5776 6.52235C93.6998 6.54205 93.8117 6.60439 93.8946 6.69884C93.9774 6.79328 94.0261 6.91407 94.0325 7.0408C94.0397 7.12518 94.0284 7.21008 93.9992 7.28918C93.9701 7.36829 93.9239 7.43955 93.8641 7.49765L90.3538 10.943L91.2014 15.799C91.281 16.2538 90.8443 16.61 90.4576 16.4068L86.0585 14.0907L81.6781 16.4068C81.6323 16.4312 81.5832 16.4485 81.5323 16.4581C81.1906 16.5197 80.8634 16.1973 80.93 15.799L81.7423 10.943L78.208 7.49765C78.1531 7.44447 78.1093 7.3803 78.0795 7.30913C78.0497 7.23796 78.0344 7.1613 78.0346 7.08392C78.0342 6.97452 78.0632 6.86724 78.1184 6.77387C78.1576 6.70619 78.2111 6.64845 78.2749 6.60491C78.3388 6.56138 78.4115 6.53316 78.4875 6.52235L83.3826 5.80781ZM86.0542 12.8998C86.1349 12.8995 86.2145 12.9192 86.2864 12.9573L89.9792 14.9017L89.2705 10.8393C89.2538 10.7459 89.2596 10.6498 89.2876 10.5594C89.3155 10.469 89.3646 10.3871 89.4306 10.3209L92.3271 7.47712L88.2732 6.88578C88.1893 6.87277 88.1096 6.83908 88.041 6.78758C87.9723 6.73609 87.9168 6.66833 87.8792 6.59011L86.0187 2.83468L86.0177 2.83776L89.9792 14.9017L86.0542 12.8998Z" fill="black"/>
<defs>
<clipPath id="clip0_3015_1120">
<rect width="16" height="15" fill="white" transform="translate(0.719635 0.966064) rotate(0.380612)"/>
</clipPath>
<clipPath id="clip1_3015_1120">
<rect width="16" height="15" fill="white" transform="translate(20.7192 1.099) rotate(0.380612)"/>
</clipPath>
<clipPath id="clip2_3015_1120">
<rect width="16" height="15" fill="white" transform="translate(40.7188 1.23181) rotate(0.380612)"/>
</clipPath>
</defs>
</svg>
