<svg width="32" height="25" viewBox="0 0 32 25" fill="none" xmlns="http://www.w3.org/2000/svg">
<path d="M6.51224 1.13624C6.51224 0.834893 6.39995 0.545885 6.20007 0.332798C6.00019 0.119711 5.72909 0 5.44642 0C5.16374 0 4.89265 0.119711 4.69277 0.332798C4.49289 0.545885 4.3806 0.834893 4.3806 1.13624V21.1182L1.93773 18.5117C1.83864 18.406 1.721 18.3222 1.59152 18.2651C1.46205 18.2079 1.32328 18.1785 1.18313 18.1785C1.04299 18.1785 0.904221 18.2079 0.774747 18.2651C0.645272 18.3222 0.527628 18.406 0.428533 18.5117C0.329437 18.6173 0.25083 18.7427 0.1972 18.8808C0.14357 19.0188 0.115967 19.1667 0.115967 19.3161C0.115967 19.4655 0.14357 19.6135 0.1972 19.7515C0.25083 19.8895 0.329437 20.0149 0.428533 20.1206L4.69182 24.6633L4.70674 24.6792C4.90685 24.8872 5.17596 25.0025 5.45545 25C5.73493 24.9974 6.00215 24.8772 6.19889 24.6656L10.4622 20.1206C10.6623 19.9075 10.7748 19.6185 10.775 19.3169C10.7752 19.0154 10.6631 18.7262 10.4632 18.5128C10.2634 18.2995 9.99222 18.1795 9.70939 18.1793C9.42656 18.179 9.15523 18.2986 8.9551 18.5117L6.51224 21.1182V1.13624ZM15.0388 2.27249C14.7561 2.27249 14.485 2.15278 14.2852 1.93969C14.0853 1.7266 13.973 1.43759 13.973 1.13624C13.973 0.834893 14.0853 0.545885 14.2852 0.332798C14.485 0.119711 14.7561 0 15.0388 0H17.1704C17.4531 0 17.7242 0.119711 17.9241 0.332798C18.124 0.545885 18.2363 0.834893 18.2363 1.13624C18.2363 1.43759 18.124 1.7266 17.9241 1.93969C17.7242 2.15278 17.4531 2.27249 17.1704 2.27249H15.0388ZM15.0388 9.08994C14.7561 9.08994 14.485 8.97023 14.2852 8.75715C14.0853 8.54406 13.973 8.25505 13.973 7.9537C13.973 7.65235 14.0853 7.36334 14.2852 7.15026C14.485 6.93717 14.7561 6.81746 15.0388 6.81746H21.4337C21.7164 6.81746 21.9875 6.93717 22.1874 7.15026C22.3873 7.36334 22.4995 7.65235 22.4995 7.9537C22.4995 8.25505 22.3873 8.54406 22.1874 8.75715C21.9875 8.97023 21.7164 9.08994 21.4337 9.08994H15.0388ZM15.0388 15.9074C14.7561 15.9074 14.485 15.7877 14.2852 15.5746C14.0853 15.3615 13.973 15.0725 13.973 14.7712C13.973 14.4698 14.0853 14.1808 14.2852 13.9677C14.485 13.7546 14.7561 13.6349 15.0388 13.6349H25.697C25.9797 13.6349 26.2508 13.7546 26.4507 13.9677C26.6505 14.1808 26.7628 14.4698 26.7628 14.7712C26.7628 15.0725 26.6505 15.3615 26.4507 15.5746C26.2508 15.7877 25.9797 15.9074 25.697 15.9074H15.0388ZM13.973 21.5886C13.973 21.89 14.0853 22.179 14.2852 22.3921C14.485 22.6052 14.7561 22.7249 15.0388 22.7249H29.9603C30.243 22.7249 30.5141 22.6052 30.7139 22.3921C30.9138 22.179 31.0261 21.89 31.0261 21.5886C31.0261 21.2873 30.9138 20.9983 30.7139 20.7852C30.5141 20.5721 30.243 20.4524 29.9603 20.4524H15.0388C14.7561 20.4524 14.485 20.5721 14.2852 20.7852C14.0853 20.9983 13.973 21.2873 13.973 21.5886Z" fill="#1C6DDE"/>
</svg>
