<svg width="15" height="12" viewBox="0 0 15 12" fill="none" xmlns="http://www.w3.org/2000/svg">
<path d="M10.7379 11.1581C12.8767 9.2748 14.066 7.13266 14.066 7.13266C14.066 7.13266 10.3617 0.232898 4.11187 0.19138C2.91136 0.187539 1.7228 0.429796 0.619568 0.903197L1.57564 1.87332C2.38688 1.58389 3.24226 1.43773 4.10357 1.44135C6.75351 1.45896 8.94251 2.93353 10.543 4.55545C11.3133 5.34019 12.0027 6.20034 12.601 7.12293C12.5278 7.23119 12.447 7.35066 12.3549 7.4813C11.9322 8.0785 11.3081 8.87438 10.5091 9.66284C10.3015 9.86771 10.0851 10.07 9.85883 10.266L10.7379 11.1581Z" fill="#8D4337"/>
</svg>
