<svg width="10" height="10" viewBox="0 0 10 10" fill="none" xmlns="http://www.w3.org/2000/svg">
<path d="M9.1776 6.56352C9.46172 5.78519 9.51898 4.94218 9.34271 4.13258C9.16645 3.32299 8.76391 2.58009 8.18193 1.99033C7.59995 1.40056 6.86247 0.988189 6.05528 0.801184C5.2481 0.61418 4.40441 0.660235 3.62237 0.933989L4.64427 1.96955C5.1251 1.90398 5.6146 1.9513 6.07397 2.10775C6.53334 2.26421 6.94996 2.5255 7.29082 2.87092C7.63168 3.21633 7.88741 3.63639 8.03775 4.0978C8.18809 4.55921 8.2289 5.04929 8.15695 5.52921L9.1776 6.56352ZM5.48814 8.16279L6.50879 9.1971C5.72676 9.47085 4.88307 9.5169 4.07588 9.3299C3.2687 9.14289 2.53121 8.73052 1.94924 8.14076C1.36726 7.551 0.964718 6.8081 0.788454 5.9985C0.61219 5.1889 0.669449 4.3459 0.953569 3.56757L1.97546 4.60313C1.90351 5.08305 1.94432 5.57313 2.09466 6.03454C2.245 6.49595 2.50073 6.91601 2.84159 7.26143C3.18245 7.60685 3.59907 7.86814 4.05844 8.02459C4.51781 8.18104 5.00731 8.22836 5.48814 8.16279Z" fill="#8D4337"/>
</svg>
