<svg width="6" height="27" viewBox="0 0 6 27" fill="none" xmlns="http://www.w3.org/2000/svg">
<path d="M5.36963 23.9339C5.36963 24.729 5.1371 25.4916 4.7232 26.0539C4.30931 26.6161 3.74794 26.932 3.1626 26.932C2.57726 26.932 2.01589 26.6161 1.60199 26.0539C1.18809 25.4916 0.955566 24.729 0.955566 23.9339C0.955566 23.1387 1.18809 22.3761 1.60199 21.8139C2.01589 21.2516 2.57726 20.9357 3.1626 20.9357C3.74794 20.9357 4.30931 21.2516 4.7232 21.8139C5.1371 22.3761 5.36963 23.1387 5.36963 23.9339ZM5.36963 13.9401C5.36963 14.7353 5.1371 15.4979 4.7232 16.0601C4.30931 16.6224 3.74794 16.9382 3.1626 16.9382C2.57726 16.9382 2.01589 16.6224 1.60199 16.0601C1.18809 15.4979 0.955566 14.7353 0.955566 13.9401C0.955566 13.145 1.18809 12.3824 1.60199 11.8201C2.01589 11.2579 2.57726 10.942 3.1626 10.942C3.74794 10.942 4.30931 11.2579 4.7232 11.8201C5.1371 12.3824 5.36963 13.145 5.36963 13.9401ZM5.36963 3.94637C5.36963 4.74152 5.1371 5.5041 4.7232 6.06636C4.30931 6.62862 3.74794 6.94449 3.1626 6.94449C2.57726 6.94449 2.01589 6.62862 1.60199 6.06636C1.18809 5.5041 0.955566 4.74152 0.955566 3.94637C0.955566 3.15121 1.18809 2.38863 1.60199 1.82637C2.01589 1.26412 2.57726 0.948242 3.1626 0.948242C3.74794 0.948242 4.30931 1.26412 4.7232 1.82637C5.1371 2.38863 5.36963 3.15121 5.36963 3.94637Z" fill="#3A312E"/>
</svg>
