<svg width="18" height="20" viewBox="0 0 18 20" fill="none" xmlns="http://www.w3.org/2000/svg">
<path d="M10.1186 19.5C12.3831 16.9922 17.5478 10.9141 17.5478 7.5C17.5478 3.35938 13.7515 0 9.07244 0C4.39333 0 0.597076 3.35938 0.597076 7.5C0.597076 10.9141 5.76175 16.9922 8.02626 19.5C8.56921 20.0977 9.57566 20.0977 10.1186 19.5ZM9.07244 5C9.82171 5 10.5403 5.26339 11.0701 5.73223C11.5999 6.20107 11.8976 6.83696 11.8976 7.5C11.8976 8.16304 11.5999 8.79893 11.0701 9.26777C10.5403 9.73661 9.82171 10 9.07244 10C8.32317 10 7.60459 9.73661 7.07478 9.26777C6.54496 8.79893 6.24732 8.16304 6.24732 7.5C6.24732 6.83696 6.54496 6.20107 7.07478 5.73223C7.60459 5.26339 8.32317 5 9.07244 5Z" fill="#2C9A2C"/>
</svg>
