<svg width="26" height="23" viewBox="0 0 26 23" fill="none" xmlns="http://www.w3.org/2000/svg">
<path d="M23.5326 1.875C23.7392 1.875 23.9373 1.97377 24.0834 2.14959C24.2295 2.3254 24.3116 2.56386 24.3116 2.8125V19.6875C24.3116 19.9361 24.2295 20.1746 24.0834 20.3504C23.9373 20.5262 23.7392 20.625 23.5326 20.625H3.27899C3.07239 20.625 2.87425 20.5262 2.72816 20.3504C2.58207 20.1746 2.5 19.9361 2.5 19.6875V2.8125C2.5 2.56386 2.58207 2.3254 2.72816 2.14959C2.87425 1.97377 3.07239 1.875 3.27899 1.875H23.5326ZM3.27899 0C2.65919 0 2.06477 0.296316 1.62651 0.823762C1.18825 1.35121 0.942032 2.06658 0.942032 2.8125L0.942032 19.6875C0.942032 20.4334 1.18825 21.1488 1.62651 21.6762C2.06477 22.2037 2.65919 22.5 3.27899 22.5H23.5326C24.1524 22.5 24.7468 22.2037 25.1851 21.6762C25.6234 21.1488 25.8696 20.4334 25.8696 19.6875V2.8125C25.8696 2.06658 25.6234 1.35121 25.1851 0.823762C24.7468 0.296316 24.1524 0 23.5326 0H3.27899Z" fill="#E0A64E"/>
</svg>
