<svg width="17" height="12" viewBox="0 0 17 12" fill="none" xmlns="http://www.w3.org/2000/svg">
<path d="M0.615936 7.1875C0.615936 6.93886 0.698008 6.7004 0.844096 6.52459C0.990184 6.34877 1.18832 6.25 1.39492 6.25H15.4167C15.6233 6.25 15.8214 6.34877 15.9675 6.52459C16.1136 6.7004 16.1956 6.93886 16.1956 7.1875C16.1956 7.43614 16.1136 7.6746 15.9675 7.85041C15.8214 8.02623 15.6233 8.125 15.4167 8.125H1.39492C1.18832 8.125 0.990184 8.02623 0.844096 7.85041C0.698008 7.6746 0.615936 7.43614 0.615936 7.1875ZM0.615936 10.9375C0.615936 10.6889 0.698008 10.4504 0.844096 10.2746C0.990184 10.0988 1.18832 10 1.39492 10H10.7427C10.9493 10 11.1475 10.0988 11.2936 10.2746C11.4397 10.4504 11.5217 10.6889 11.5217 10.9375C11.5217 11.1861 11.4397 11.4246 11.2936 11.6004C11.1475 11.7762 10.9493 11.875 10.7427 11.875H1.39492C1.18832 11.875 0.990184 11.7762 0.844096 11.6004C0.698008 11.4246 0.615936 11.1861 0.615936 10.9375ZM0.615936 1.5625C0.615936 1.31386 0.698008 1.0754 0.844096 0.899588C0.990184 0.723772 1.18832 0.625 1.39492 0.625H15.4167C15.6233 0.625 15.8214 0.723772 15.9675 0.899588C16.1136 1.0754 16.1956 1.31386 16.1956 1.5625V3.4375C16.1956 3.68614 16.1136 3.9246 15.9675 4.10041C15.8214 4.27623 15.6233 4.375 15.4167 4.375H1.39492C1.18832 4.375 0.990184 4.27623 0.844096 4.10041C0.698008 3.9246 0.615936 3.68614 0.615936 3.4375V1.5625Z" fill="#E0A64E"/>
</svg>
