<svg width="18" height="17" viewBox="0 0 18 17" fill="none" xmlns="http://www.w3.org/2000/svg">
<path d="M4.27483 4.86521C4.0485 5.06371 3.83091 5.26477 3.6233 5.46964C2.84269 6.24409 2.14187 7.095 1.53138 8.00955L1.77273 8.37116C2.18749 8.97393 2.80091 9.77802 3.58937 10.577C5.18988 12.1989 7.38013 13.6735 10.0288 13.6911C10.9238 13.6971 11.7674 13.5364 12.5568 13.2579L13.5128 14.2293C12.4096 14.7026 11.221 14.9449 10.0205 14.9411C3.77066 14.8996 0.06641 7.99982 0.06641 7.99982C0.06641 7.99982 1.25442 5.85641 3.39447 3.97434L4.27357 4.86645L4.27483 4.86521ZM17.0708 16.0555L2.17075 0.956143L3.06161 0.0770418L17.9616 15.1764L17.0708 16.0555Z" fill="#8D4337"/>
</svg>
