<svg width="25" height="20" viewBox="0 0 25 20" fill="none" xmlns="http://www.w3.org/2000/svg">
<path d="M3.01449 0C2.41948 0 1.84884 0.256807 1.42811 0.713927C1.00738 1.17105 0.771011 1.79103 0.771011 2.4375L0.771011 17.0625C0.771011 17.709 1.00738 18.329 1.42811 18.7861C1.84884 19.2432 2.41948 19.5 3.01449 19.5H22.458C23.053 19.5 23.6236 19.2432 24.0443 18.7861C24.4651 18.329 24.7014 17.709 24.7014 17.0625V2.4375C24.7014 1.79103 24.4651 1.17105 24.0443 0.713927C23.6236 0.256807 23.053 0 22.458 0H3.01449ZM22.458 1.625C22.6563 1.625 22.8465 1.7106 22.9868 1.86298C23.127 2.01535 23.2058 2.22201 23.2058 2.4375V12.1875L17.5597 9.02362C17.4194 8.94729 17.2606 8.92081 17.1058 8.94793C16.9509 8.97505 16.8078 9.0544 16.6967 9.17475L11.1478 15.2035L7.16941 12.324C7.02577 12.2201 6.85347 12.1734 6.68174 12.1917C6.51 12.2101 6.3494 12.2924 6.22715 12.4247L2.26965 16.25V17.1275C2.26787 17.1059 2.26687 17.0842 2.26666 17.0625V2.4375C2.26666 2.22201 2.34545 2.01535 2.4857 1.86298C2.62594 1.7106 2.81615 1.625 3.01449 1.625H22.458Z" fill="#D654EA"/>
</svg>
